<?xml version="1.0" encoding="UTF-8"?>
<svg version="1.1" xmlns="http://www.w3.org/2000/svg" width="1819" height="375">
<path d="M0 0 C22.11 0 44.22 0 67 0 C67.33 47.52 67.66 95.04 68 144 C71.465 139.545 71.465 139.545 75 135 C88.20174941 123.76866095 105.61624518 116.70516113 123 116 C123.88558594 115.96003906 124.77117187 115.92007813 125.68359375 115.87890625 C148.98912412 115.35275218 169.7267658 122.18082616 187 138 C195.99363741 146.64200647 203.69054887 157.19389951 208 169 C210.91140666 165.47259416 213.44298446 161.83035016 215.9375 158 C230.39004661 136.73493881 252.91882862 123.01623428 278 118 C306.15674777 113.21170629 337.24197897 115.82299886 361.42578125 132.23828125 C364.3703303 134.40460133 367.19724247 136.65398814 370 139 C370.79792969 139.63550781 371.59585937 140.27101562 372.41796875 140.92578125 C382.15429541 149.01983594 387.9690428 158.94324513 394 170 C394.33 113.9 394.66 57.8 395 0 C417.11 0 439.22 0 462 0 C462.33 60.06 462.66 120.12 463 182 C482.8 162.2 502.6 142.4 523 122 C550.81657989 119.53107279 573.18315945 117.70257515 600 122 C596.24258703 126.49158621 592.36642833 130.76621651 588.19140625 134.87109375 C587.66159653 135.39711685 587.1317868 135.92313995 586.58592224 136.46510315 C584.35434099 138.6805848 582.11677295 140.88998157 579.87963867 143.09985352 C578.23140934 144.72977722 576.58636511 146.36287044 574.94140625 147.99609375 C574.44951309 148.47968857 573.95761993 148.96328339 573.45082092 149.46153259 C570.77443099 152.11952829 568.24306372 154.84807409 565.78662109 157.71118164 C561.26550048 162.92861979 556.3653501 167.75948532 551.47265625 172.625 C550.47352972 173.62225677 549.4746272 174.61973802 548.47593689 175.61743164 C545.8725305 178.21705679 543.2661333 180.81366231 540.65905762 183.40960693 C537.98895726 186.06939763 535.32175723 188.7320934 532.65429688 191.39453125 C527.43899962 196.59916888 522.22053284 201.8006134 517 207 C518.42489707 210.24501444 520.15188667 212.3975619 522.65725708 214.89103699 C523.41728027 215.65236435 524.17730347 216.41369171 524.96035767 217.1980896 C525.79473358 218.02370392 526.6291095 218.84931824 527.48876953 219.69995117 C528.80593964 221.01514992 528.80593964 221.01514992 530.14971924 222.35691833 C532.05730147 224.26023658 533.96659417 226.16163028 535.87909317 228.05998802 C538.90034943 231.05897087 541.91449477 234.06503277 544.92770386 237.07209778 C549.6908425 241.82386301 554.45863316 246.57092882 559.22847164 251.31596786 C567.7805786 259.82369512 576.32704848 268.33707655 584.86837471 276.85562688 C587.86805097 279.84687306 590.87051243 282.83528777 593.87521005 285.82148969 C596.17534382 288.1085327 598.47239757 290.3986664 600.77001953 292.68823242 C601.60844391 293.51991943 602.44686829 294.35160645 603.31069946 295.20849609 C604.06508301 295.96136398 604.81946655 296.71423187 605.59671021 297.48991394 C606.25780352 298.14748782 606.91889683 298.8050617 607.60002327 299.48256207 C609 301 609 301 609 302 C599.06462666 302.49127557 589.13223042 302.86194834 579.18709278 303.08805561 C574.56586036 303.19671852 569.95304987 303.34335504 565.33666992 303.58422852 C531.82777848 305.28703469 531.82777848 305.28703469 521.48850155 296.17256069 C517.50102486 292.33790952 514.09754358 288.07286709 510.87252808 283.59127808 C507.01562686 278.25394632 502.53971545 273.39087492 497.84375 268.78125 C497.13089844 268.07613281 496.41804688 267.37101562 495.68359375 266.64453125 C494.96300781 265.93683594 494.24242187 265.22914063 493.5 264.5 C485.46082589 256.60463938 485.46082589 256.60463938 481.90625 252.40625 C475.91523566 245.64838583 469.38596042 239.38596042 463 233 C462.67 255.77 462.34 278.54 462 302 C439.89 302 417.78 302 395 302 C394.67 286.49 394.34 270.98 394 255 C392.02 258.63 390.04 262.26 388 266 C371.56755754 288.28127791 350.68258216 301.72060117 323.1953125 306.6875 C292.67661658 311.03868041 261.1345738 306.51855208 235.89526367 287.91235352 C225.90905693 280.23343965 218.66964031 271.65906617 211.99609375 261.08984375 C210.17771753 258.0375529 210.17771753 258.0375529 208 256 C207.27296875 257.45019531 207.27296875 257.45019531 206.53125 258.9296875 C202.41120799 266.99628514 198.12703899 274.25235853 192 281 C191.22785156 281.85335938 190.45570313 282.70671875 189.66015625 283.5859375 C184.01614363 289.52418775 178.12593378 293.98393905 171 298 C170.21109375 298.46148437 169.4221875 298.92296875 168.609375 299.3984375 C159.16555591 304.55813998 147.76143857 307.58208006 137 308 C135.34097656 308.07734375 135.34097656 308.07734375 133.6484375 308.15625 C111.23560869 308.71309047 91.32158739 301.09033765 74.91992188 285.90771484 C72.28516697 283.39674643 70.20214065 280.93618754 68 278 C67.67 285.92 67.34 293.84 67 302 C44.89 302 22.78 302 0 302 C0 202.34 0 102.68 0 0 Z M76.75 184.3125 C69.26679277 193.66650904 66.51030379 204.18349573 67.125 216.0625 C68.63925033 229.37745983 74.62165777 238.63743463 84.625 247.23828125 C94.2856336 254.40431045 105.38529179 254.99803276 117 254 C120.98817104 253.16013245 124.3838877 251.86355384 128 250 C128.78761719 249.59910156 129.57523438 249.19820313 130.38671875 248.78515625 C139.08659667 243.68930246 145.3094182 234.81622997 148.375 225.27734375 C150.73618889 212.89585951 150.23452218 199.41499135 143.45703125 188.51953125 C136.79922971 179.42409071 128.32286301 172.14813181 117 170 C100.68432171 168.87921579 88.21626925 171.97316456 76.75 184.3125 Z M273.22265625 185.171875 C265.68357441 195.8629935 263.89998891 207.19251389 265 220 C267.014203 230.78461832 271.59007379 238.77964431 280.07421875 245.68359375 C289.23227979 251.94376935 299.85582676 253.39682041 310.6875 251.5390625 C319.84158215 249.10750943 327.70021477 243.90915961 333 236 C339.1425641 225.13394602 340.4756006 212.79024559 337.828125 200.6875 C334.36131217 189.4367112 328.44682256 180.55885971 318 175 C302.19680678 168.82615775 284.29777207 171.63832688 273.22265625 185.171875 Z " fill="#000000" transform="translate(699,27)"/>
<path d="M0 0 C-0.50357561 5.61000896 -2.67381118 9.53961044 -5.4375 14.3125 C-5.87690918 15.08706543 -6.31631836 15.86163086 -6.76904297 16.65966797 C-11.42109138 24.82593684 -16.19477661 32.92313515 -21 41 C-24.27394291 40.26247319 -27.06143432 39.06471707 -30.07299805 37.57446289 C-44.93762792 30.25043583 -62.28678379 26.36326305 -78.5625 31.6875 C-82.58584315 33.25177582 -84.14479985 35.106443 -86 39 C-86.0800536 43.48300183 -85.59224882 45.34700771 -82.5625 48.6875 C-74.66461014 54.41062542 -64.61782871 56.21247632 -55.3125 58.375 C-37.75866162 62.62130707 -22.73689883 67.92403488 -9 80 C-8.93530518 79.41210693 -8.87061035 78.82421387 -8.80395508 78.21850586 C-5.58900871 49.91869896 3.74274604 25.84331926 26 7 C50.49782182 -11.96744935 81.30027031 -17.74189587 111.61328125 -13.97998047 C130.62319837 -11.34209711 147.28480798 -4.31716073 162 8 C162.79792969 8.63550781 163.59585937 9.27101562 164.41796875 9.92578125 C178.61906722 21.73151371 186.27549077 37.82647231 192 55 C192.33 33.88 192.66 12.76 193 -9 C215.11 -9 237.22 -9 260 -9 C260.33 -2.07 260.66 4.86 261 12 C262.485 10.205625 262.485 10.205625 264 8.375 C276.4784926 -5.70963521 296.39271692 -13.77985029 315 -15 C333.44071859 -15.84191793 349.87423728 -12.45497358 364 0 C368.82507156 5.17377421 372.7323572 10.73701796 376 17 C376.4846875 16.35933594 376.969375 15.71867187 377.46875 15.05859375 C390.39999647 -1.62768775 407.32033867 -10.9838549 428.1875 -14.3125 C447.23524907 -16.55718423 467.06527939 -14.34821043 483.0625 -3.0625 C484.73309852 -1.7390064 486.38177948 -0.38704616 488 1 C488.98033203 1.83144531 488.98033203 1.83144531 489.98046875 2.6796875 C505.98777952 17.45023033 510.00677674 39.71718586 510.91721725 60.49160767 C511.22171941 69.71829931 511.11898118 78.95723674 511.09765625 88.1875 C511.09578717 90.58601858 511.09436559 92.98453754 511.09336853 95.38305664 C511.08958191 101.64315884 511.07978532 107.90323719 511.06866455 114.16333008 C511.05655072 121.70269274 511.05202981 129.24206346 511.04621124 136.78143311 C511.03657088 148.18763856 511.01738751 159.59379189 511 171 C488.89 171 466.78 171 444 171 C443.96261719 163.51054687 443.92523437 156.02109375 443.88671875 148.3046875 C443.85641484 143.53773815 443.82525104 138.77082504 443.79101562 134.00390625 C443.73685055 126.45070299 443.68573451 118.89757142 443.65356445 111.34423828 C443.62740523 105.24921873 443.58691452 99.15444223 443.53681374 93.05957413 C443.52023 90.7434099 443.50866319 88.42720371 443.50238609 86.11098862 C443.91873906 62.42289278 443.91873906 62.42289278 435 41 C428.3798058 35.30294045 421.89696622 34.63126298 413.38671875 34.7265625 C405.70263684 35.34696127 399.40245451 38.55456721 393.8203125 43.8203125 C385.62732816 53.6307959 383.70952927 65.21888428 383.68115234 77.56860352 C383.66608391 79.09213188 383.66608391 79.09213188 383.65071106 80.6464386 C383.6200396 83.97392253 383.60288865 87.30132659 383.5859375 90.62890625 C383.56721295 92.94775573 383.54763859 95.26659849 383.5272522 97.58543396 C383.47606105 103.66639228 383.43636574 109.74737265 383.39910889 115.82843018 C383.35192406 123.13658352 383.29038221 130.44462851 383.23126221 137.75269318 C383.14320878 148.83508474 383.07333042 159.9174572 383 171 C362.54 171 342.08 171 321 171 C320.96261719 163.66652344 320.92523438 156.33304688 320.88671875 148.77734375 C320.85641027 144.10609717 320.8252435 139.43488738 320.79101562 134.76367188 C320.73687748 127.36419627 320.6857607 119.9647934 320.65356445 112.56518555 C320.62738055 106.59335243 320.58687319 100.62176635 320.53681374 94.65008736 C320.52024646 92.38219866 320.50866954 90.11426733 320.50238609 87.84632683 C321.00153477 61.95412433 321.00153477 61.95412433 309.6875 39.5625 C301.00719405 34.51581049 292.17328816 33.38821087 282.375 35.9375 C274.61755416 38.9699561 268.58378891 45.00640828 265 52.4375 C261.43667594 60.80869145 260.70211107 69.59463986 260.68115234 78.59033203 C260.67110672 79.59641006 260.6610611 80.6024881 260.65071106 81.63905334 C260.6200876 84.92863449 260.60290225 88.21813504 260.5859375 91.5078125 C260.56720907 93.80281253 260.54763443 96.09780581 260.5272522 98.39279175 C260.476102 104.40633135 260.43638496 110.41989324 260.39910889 116.43353271 C260.35189155 123.66328431 260.29036748 130.89292681 260.23126221 138.12258911 C260.14325879 149.08168163 260.07334472 160.04075544 260 171 C237.89 171 215.78 171 193 171 C192.67 150.21 192.34 129.42 192 108 C190.35 112.62 188.7 117.24 187 122 C183.14670653 130.55517741 178.25697666 138.02446595 172 145 C171.18789063 145.90621094 170.37578125 146.81242188 169.5390625 147.74609375 C151.07551046 167.26547941 125.07776865 176.26548806 98.546875 177.1875 C67.72752488 177.82466111 39.76986673 169.07953085 17.1875 147.75 C11.43714275 141.80341394 7.18940063 135.08577637 3 128 C2.67128906 128.89138672 2.67128906 128.89138672 2.3359375 129.80078125 C-4.3611667 147.30581376 -13.86825567 158.99658015 -31 167 C-64.66183453 181.36238273 -107.37356349 181.01100823 -141.3125 167.6875 C-148.15563091 164.65905058 -154.58032764 160.82711237 -161 157 C-154.46830809 142.08926897 -147.37704126 127.50987184 -140 113 C-135.74216133 113 -134.9513847 113.39622254 -131.5625 115.625 C-115.26626998 125.71768711 -97.62156402 131.04645019 -78.5 126.75 C-72.57332023 125.07472518 -68.50113941 123.25170911 -65 118 C-64.58544769 113.71629279 -64.42680457 111.17368589 -66.3125 107.3125 C-73.8021191 100.86794403 -83.85961978 98.78410218 -93.25 96.5625 C-113.57753591 91.49060549 -133.36029143 84.68566143 -145.3125 66.1875 C-152.04167063 54.03098739 -152.78568791 39.90631626 -150.34375 26.359375 C-148.29773703 19.4805383 -144.89108456 14.20348916 -140 9 C-139.36449219 8.32324219 -138.72898437 7.64648438 -138.07421875 6.94921875 C-104.67350599 -25.44506952 -38.20711697 -20.10399422 0 0 Z M65.22265625 54.171875 C57.68357441 64.8629935 55.89998891 76.19251389 57 89 C59.014203 99.78461832 63.59007379 107.77964431 72.07421875 114.68359375 C81.23227979 120.94376935 91.85582676 122.39682041 102.6875 120.5390625 C111.84158215 118.10750943 119.70021477 112.90915961 125 105 C131.1425641 94.13394602 132.4756006 81.79024559 129.828125 69.6875 C126.36131217 58.4367112 120.44682256 49.55885971 110 44 C94.19680678 37.82615775 76.29777207 40.63832688 65.22265625 54.171875 Z " fill="#000000" transform="translate(187,158)"/>
<path d="M0 0 C22.44 0 44.88 0 68 0 C68 99.66 68 199.32 68 302 C45.89 302 23.78 302 1 302 C0.67 294.08 0.34 286.16 0 278 C-2.289375 280.6915625 -2.289375 280.6915625 -4.625 283.4375 C-16.61804563 296.87615229 -34.76418936 306.11862238 -52.73046875 307.875 C-77.43246969 309.23552329 -99.25784673 303.71336348 -118 287 C-128.73141985 277.34172214 -134.84180787 265.82602774 -141 253 C-141.66329542 251.66498636 -142.32788008 250.33059274 -143 249 C-143.38929688 249.78761719 -143.77859375 250.57523438 -144.1796875 251.38671875 C-153.74209751 270.00477511 -166.59460625 283.82210869 -185 294 C-185.96550781 294.54398437 -186.93101562 295.08796875 -187.92578125 295.6484375 C-199.09623614 301.60399802 -211.45886357 305.34326001 -224 307 C-224.80824219 307.11085938 -225.61648438 307.22171875 -226.44921875 307.3359375 C-261.50049808 311.30805798 -294.74840008 303.66490243 -322.625 281.6875 C-336.59534455 269.89692552 -348.63093928 254.00777619 -353 236 C-340.61618993 229.42773508 -328.17574326 222.98179043 -315.64160156 216.70068359 C-312.94309563 215.34644263 -310.24896571 213.98372278 -307.5546875 212.62109375 C-305.82838579 211.75468851 -304.10183323 210.88878287 -302.375 210.0234375 C-301.57513672 209.61733246 -300.77527344 209.21122742 -299.95117188 208.79281616 C-299.21189453 208.42467804 -298.47261719 208.05653992 -297.7109375 207.67724609 C-296.74099854 207.18954239 -296.74099854 207.18954239 -295.75146484 206.69198608 C-294 206 -294 206 -291 206 C-290.731875 206.78761719 -290.46375 207.57523438 -290.1875 208.38671875 C-284.50721614 224.17566567 -276.23267803 237.13523571 -261.5546875 245.80859375 C-251.5113803 250.4923991 -238.98413923 250.59534786 -228.4375 247.375 C-223.88245949 245.63318258 -220.22789877 243.32926393 -216.5234375 240.171875 C-215 239 -215 239 -213 239 C-212.62875 238.195625 -212.62875 238.195625 -212.25 237.375 C-211 235 -211 235 -209.0625 232.3125 C-203.18283624 222.86940366 -201.72886271 211.58967616 -204.0625 200.75 C-206.58883763 192.16271783 -210.73911965 185.91188277 -218.48046875 181.27734375 C-229.08967057 175.89872515 -238.8290364 175.35232929 -251 174 C-251 158.16 -251 142.32 -251 126 C-242.585 125.505 -242.585 125.505 -234 125 C-224.96917576 122.64822285 -218.050753 118.83446526 -212.625 111.01953125 C-208.1356578 102.75055903 -207.19330751 94.17959198 -209 85 C-211.27116243 77.35951335 -215.70389647 70.66768832 -222.53515625 66.42578125 C-233.71522646 60.67932395 -247.4865692 59.87831772 -259.5625 63.5625 C-272.78677971 68.88536468 -281.16119337 78.38647767 -287.0625 91.25 C-287.72397971 92.82686072 -288.37629213 94.40782111 -289 96 C-293.63470258 95.36532391 -297.50734063 93.48315767 -301.65234375 91.4296875 C-302.38892715 91.0703714 -303.12551056 90.7110553 -303.88441467 90.34085083 C-306.23813352 89.19097202 -308.5878012 88.03306756 -310.9375 86.875 C-312.48216876 86.11927409 -314.02708853 85.36406101 -315.57226562 84.609375 C-324.74087572 80.12493116 -333.87928009 75.58099922 -343 71 C-338.43528058 50.61805928 -322.7969707 34.02621095 -305.7578125 22.87890625 C-278.91905553 6.42760679 -244.71734147 2.6992618 -214.20556641 9.45654297 C-191.07202499 15.15670493 -169.94447944 28.20629285 -157.1875 48.75 C-147.40719328 66.46091005 -144.74771904 88.5168564 -149.5625 108.1875 C-154.14705321 122.51823625 -162.68486663 136.27323096 -176 144 C-178.23046875 144.65234375 -178.23046875 144.65234375 -180 145 C-180 145.66 -180 146.32 -180 147 C-179.21625 147.04125 -178.4325 147.0825 -177.625 147.125 C-163.88130756 150.442443 -153.33565176 162.58299297 -146 174 C-145.3077189 175.32021555 -144.62988315 176.64890065 -144 178 C-143.731875 177.29617187 -143.46375 176.59234375 -143.1875 175.8671875 C-133.86913369 152.3873566 -118.71649676 132.61211592 -95.0625 122.25 C-72.49623443 113.37529789 -48.4317653 114.07686684 -26 123 C-16.34646652 127.31835568 -7.37629863 133.4982685 -1 142 C-0.67 95.14 -0.34 48.28 0 0 Z M-74.171875 186.390625 C-81.16716674 196.37535765 -82.92113244 208.11548594 -81.4375 220 C-79.1902698 231.5076285 -73.22101209 241.46399313 -63.6875 248.25 C-52.97833875 254.85928434 -40.95152113 255.85964699 -28.671875 253.30859375 C-17.89797341 249.71227744 -9.03761113 242.00960577 -3.38671875 232.19921875 C1.45287188 221.47032347 2.11105613 208.09893234 -1.625 196.875 C-6.35775963 186.18492056 -13.23004442 177.95877502 -23.84765625 172.82421875 C-43.18927516 165.4175371 -61.01731261 170.95731951 -74.171875 186.390625 Z " fill="#000000" transform="translate(1628,27)"/>
<path d="M0 0 C1.260941 0.85915819 2.51184701 1.73331498 3.75 2.625 C4.760625 3.32625 5.77125 4.0275 6.8125 4.75 C13.38886159 10.44350757 18.10700289 19.17185779 18.96679688 27.80078125 C19.08959733 30.18431795 19.12976046 32.55084153 19.125 34.9375 C19.12338867 35.77692139 19.12177734 36.61634277 19.12011719 37.48120117 C18.99363822 43.87768907 18.01447297 49.03685703 14.75 54.625 C13.88375 56.171875 13.88375 56.171875 13 57.75 C5.78129972 66.9738948 -2.24241961 73.17993672 -13.96875 75.34765625 C-26.39516525 76.85840194 -36.66322675 74.41425345 -46.640625 66.80078125 C-55.59662198 59.25342618 -60.5093842 50.83499715 -61.5703125 39.07421875 C-61.93063458 27.31570833 -59.8186211 17.66970206 -52.1015625 8.58984375 C-38.41486303 -5.93422763 -17.75417295 -10.61900533 0 0 Z " fill="#000000" transform="translate(1764.25,259.375)"/>
<path d="M0 0 C0.66 0 1.32 0 2 0 C2 0.66 2 1.32 2 2 C1.34 2 0.68 2 0 2 C0 1.34 0 0.68 0 0 Z " fill="#000000" transform="translate(1778,327)"/>
</svg>
