<?xml version="1.0" standalone="no"?>
<!DOCTYPE svg PUBLIC "-//W3C//DTD SVG 20010904//EN"
 "http://www.w3.org/TR/2001/REC-SVG-20010904/DTD/svg10.dtd">
<svg version="1.0" xmlns="http://www.w3.org/2000/svg"
 width="2000.000000pt" height="2000.000000pt" viewBox="0 0 2000.000000 2000.000000"
 preserveAspectRatio="xMidYMid meet">

<g transform="translate(0.000000,2000.000000) scale(0.100000,-0.100000)"
fill="#000000" stroke="none">
<path d="M7917 11833 c-4 -3 -7 -683 -7 -1510 l0 -1503 335 0 335 0 0 137 0
136 28 -39 c82 -113 274 -235 425 -269 80 -19 250 -21 339 -5 250 46 477 224
589 464 l31 67 51 -83 c59 -98 214 -256 299 -306 204 -120 426 -168 693 -150
341 23 633 201 784 478 l41 75 0 -252 0 -253 335 0 335 0 2 356 3 356 340
-355 340 -356 390 0 390 -1 -469 469 -470 470 425 428 424 428 -378 3 -377 2
-307 -311 -308 -311 -5 918 -5 919 -332 3 -333 2 0 -867 -1 -868 -38 72 c-121
228 -336 392 -609 465 -99 26 -344 36 -463 18 -175 -25 -354 -101 -486 -207
-91 -73 -149 -139 -217 -247 l-54 -85 -21 51 c-35 85 -127 212 -205 284 -172
160 -344 221 -600 211 -150 -5 -215 -20 -332 -77 -97 -47 -169 -102 -218 -166
l-36 -47 0 732 0 731 -328 0 c-181 0 -332 -3 -335 -7z m1218 -1710 c188 -66
300 -266 266 -476 -31 -187 -155 -316 -334 -347 -286 -50 -525 195 -480 491
28 181 166 323 338 348 70 10 154 4 210 -16z m1947 -30 c143 -65 229 -231 215
-416 -11 -146 -77 -257 -188 -317 -62 -34 -67 -35 -179 -35 -112 0 -117 1
-178 34 -73 40 -121 91 -159 171 -23 46 -28 72 -31 161 -5 126 10 189 63 270
44 65 108 116 178 141 71 25 212 21 279 -9z"/>
<path d="M17210 11109 l0 -732 -36 47 c-69 91 -218 182 -359 222 -92 25 -303
30 -406 9 -275 -55 -498 -249 -610 -530 -17 -44 -32 -81 -34 -83 -1 -2 -16 21
-33 51 -65 116 -212 244 -309 270 -24 6 -43 14 -43 17 1 3 23 15 49 28 113 53
243 240 276 397 37 177 2 393 -87 542 -49 83 -160 197 -246 253 -348 228 -891
222 -1245 -14 -145 -96 -283 -261 -334 -398 -11 -31 -14 -51 -8 -57 6 -5 125
-63 265 -130 l254 -121 18 46 c45 113 142 221 242 268 68 32 174 49 251 40
133 -15 228 -76 280 -180 26 -52 29 -70 30 -149 0 -79 -4 -97 -28 -147 -55
-112 -160 -174 -314 -185 l-83 -6 0 -233 0 -234 58 0 c74 0 179 -23 232 -50
64 -33 135 -104 161 -163 33 -74 33 -226 0 -309 -31 -80 -106 -159 -189 -200
-64 -32 -70 -33 -192 -33 -118 0 -128 2 -185 29 -114 56 -242 213 -291 358
l-15 47 -300 -149 c-164 -83 -299 -155 -299 -160 0 -27 54 -138 106 -217 160
-247 423 -415 729 -468 117 -20 362 -21 475 -1 335 59 597 241 743 515 l43 79
22 -62 c63 -176 232 -373 387 -453 141 -71 233 -93 397 -94 61 0 134 7 173 16
159 37 341 151 427 269 l28 39 0 -136 0 -137 335 0 335 0 -2 1508 -3 1507
-332 3 -333 2 0 -731z m-272 -990 c184 -63 297 -265 263 -472 -30 -188 -161
-320 -345 -348 -134 -21 -267 23 -357 118 -92 97 -133 235 -112 374 41 265
294 416 551 328z"/>
<path d="M1865 10654 c-202 -37 -343 -102 -450 -208 -99 -98 -134 -181 -135
-313 0 -133 40 -240 126 -333 105 -113 213 -167 462 -230 84 -21 176 -52 205
-67 104 -56 113 -154 20 -213 -124 -79 -352 -66 -544 31 -46 23 -96 50 -111
60 -14 11 -29 19 -33 19 -3 0 -54 -98 -112 -217 -122 -251 -125 -218 32 -293
177 -85 350 -121 590 -121 399 0 676 104 816 307 31 45 69 142 69 176 0 32 15
19 65 -58 57 -88 196 -224 278 -272 200 -120 425 -168 692 -150 414 28 749
284 859 658 l25 85 0 -347 1 -348 335 0 335 0 0 520 c0 341 4 537 11 572 25
120 112 230 206 262 72 25 177 21 240 -8 60 -29 94 -73 126 -166 21 -63 22
-78 25 -622 l3 -558 309 0 310 0 0 523 c0 432 3 533 15 580 31 119 84 190 177
237 53 26 72 30 143 30 151 0 218 -56 257 -219 16 -69 18 -128 18 -613 l0
-538 330 0 330 0 0 594 c0 642 -3 691 -55 834 -36 101 -71 157 -141 231 -74
78 -140 120 -249 157 -115 39 -310 46 -440 15 -173 -41 -346 -149 -423 -265
l-29 -45 -47 74 c-59 93 -129 156 -220 199 -92 44 -153 56 -284 56 -137 0
-246 -26 -372 -87 -76 -36 -110 -61 -167 -118 l-73 -73 0 114 0 114 -335 0
-335 0 -1 -357 0 -358 -20 75 c-83 322 -341 570 -687 662 -99 26 -344 36 -463
18 -287 -41 -534 -195 -685 -425 -87 -133 -132 -270 -149 -453 l-7 -74 -37 35
c-86 83 -209 138 -447 197 -236 59 -304 98 -304 175 0 84 92 129 260 128 120
-1 217 -27 329 -88 36 -19 65 -34 66 -32 22 26 214 390 210 397 -9 15 -151 69
-247 95 -51 14 -138 32 -193 40 -125 19 -373 18 -480 -1z m2017 -561 c143 -65
229 -231 215 -416 -11 -146 -77 -257 -188 -317 -62 -34 -67 -35 -179 -35 -112
0 -117 1 -178 34 -73 40 -121 91 -159 171 -23 46 -28 72 -31 161 -5 126 10
189 63 270 44 65 108 116 178 141 71 25 212 21 279 -9z"/>
<path d="M18270 9560 c-77 -17 -145 -57 -208 -125 -145 -155 -147 -377 -5
-536 80 -88 174 -130 293 -130 98 0 164 21 237 75 254 187 200 586 -94 696
-66 25 -159 33 -223 20z"/>
</g>
</svg>
