<svg width="44" height="44" viewBox="0 0 44 44" fill="none" xmlns="http://www.w3.org/2000/svg">
<path fill-rule="evenodd" clip-rule="evenodd" d="M22.0021 0.84082L22.5079 1.13746L42.5059 12.8652L43.2271 13.2881L42.9387 14.0728L41.65 17.579L41.5265 17.9149L41.218 18.0962L40.8685 18.3016L40.8626 18.3136L40.604 18.4654L22.5082 29.0871L22.0019 29.3843L21.4956 29.087L12.7459 23.9488L14.6117 29.5838L22.0016 34.0178L37.026 24.99L39.4606 23.5271L38.4795 26.1926L35.8475 33.3433L35.7389 33.6383L35.4811 33.8181L22.5741 42.8203L22.002 43.2193L21.4299 42.8203L8.4902 33.7952L8.23194 33.615L8.12347 33.3194L1.06128 14.0728L0.773438 13.2883L1.49426 12.8657L21.4962 1.13743L22.0021 0.84082ZM3.22671 14.1683L9.8926 32.3349L22.002 40.7809L34.0791 32.3575L35.6215 28.1672L22.5171 36.0414L22.0024 36.3506L21.4875 36.0417L13.2645 31.1079L12.9463 30.917L12.8296 30.5647L10.0123 22.0556L9.17732 19.5338L11.468 20.879L22.0021 27.0651L39.333 16.8923L39.3388 16.8807L39.597 16.729L39.8962 16.5532L40.7731 14.1675L22.002 3.15932L3.22671 14.1683ZM22.002 6.35965L22.5079 6.65633L34.2715 13.5552L35.7424 14.4178L34.2715 15.2804L22.5079 22.1793L22.002 22.476L21.4961 22.1793L9.73253 15.2804L8.26166 14.4178L9.73253 13.5552L21.4961 6.65633L22.002 6.35965ZM12.2152 14.4178L22.002 20.1574L31.7889 14.4178L22.002 8.67822L12.2152 14.4178Z" fill="url(#paint0_linear_5236_9820)"/>
<defs>
<linearGradient id="paint0_linear_5236_9820" x1="22.0003" y1="0.84082" x2="22.0003" y2="43.2193" gradientUnits="userSpaceOnUse">
<stop stop-color="#EF9604"/>
<stop offset="1" stop-color="#F15A24"/>
</linearGradient>
</defs>
</svg>
