<?xml version="1.0" encoding="UTF-8" standalone="no"?><!DOCTYPE svg PUBLIC "-//W3C//DTD SVG 1.1//EN" "http://www.w3.org/Graphics/SVG/1.1/DTD/svg11.dtd"><svg width="100%" height="100%" viewBox="0 0 83 84" version="1.1" xmlns="http://www.w3.org/2000/svg" xmlns:xlink="http://www.w3.org/1999/xlink" xml:space="preserve" xmlns:serif="http://www.serif.com/" style="fill-rule:evenodd;clip-rule:evenodd;stroke-linejoin:round;stroke-miterlimit:2;"><path id="e9ky4qac4juf4" d="M68.644,19.711c-4.428,0.572 -7.663,3.733 -9.603,6.271c-3.907,5.176 -5.872,10.651 -8.136,17.022c-1.792,5.003 -3.632,10.179 -6.618,15.753c-2.488,4.629 -6.469,9.358 -10.947,9.656c-0.249,0 -0.473,0.025 -0.721,0.025c-4.056,0 -7.912,-4.056 -10.624,-7.864c-10.002,-14.036 -12.814,-29.391 -13.112,-41.312c-0.025,-1.07 -1.393,-1.443 -2.016,-0.547c-5.896,8.635 -8.658,20.655 -5.622,32.8c3.881,15.505 16.446,27.177 30.851,30.412c26.995,6.072 50.904,-14.459 50.904,-40.441c0,-5.226 -0.97,-10.228 -2.737,-14.832c-1.294,-3.36 -4.155,-5.948 -7.663,-6.72c-1.343,-0.323 -2.662,-0.398 -3.956,-0.223Zm-38.588,35.139c0.846,1.194 1.816,1.867 2.662,1.817c0.97,-0.05 2.09,-1.045 2.911,-2.563c2.637,-4.903 4.354,-9.731 6.02,-14.385c2.34,-6.545 4.728,-13.289 9.555,-19.66c5.1,-6.645 13.136,-9.233 16.072,-9.955c0.448,-0.125 0.572,-0.697 0.224,-0.971c-7.14,-5.724 -16.147,-9.133 -25.95,-9.133c-4.802,0 -9.429,0.821 -13.734,2.339c-5.299,1.867 -8.856,6.845 -9.006,12.469c-0.249,10.85 1.493,26.38 11.246,40.042Z" style="fill:#2857af;fill-rule:nonzero;"/></svg>